<svg width="34" height="52" viewBox="0 0 34 52" fill="none" xmlns="http://www.w3.org/2000/svg">
<path d="M32.641 3.1C33.3744 4.96666 33.0743 6.63333 31.741 8.1L14.441 25.2C13.841 25.9333 13.841 26.5333 14.441 27L31.541 44.2C33.0077 45.6667 33.3744 47.3333 32.641 49.2C32.3077 50 31.741 50.6667 30.941 51.2C30.141 51.7333 29.2744 52 28.341 52H24.541C23.2077 52 22.141 51.5333 21.341 50.6L1.34102 30.7C0.474349 29.8333 0.0410159 28.7667 0.0410159 27.5V24.7C0.0410159 23.5667 0.474349 22.5 1.34102 21.5L21.341 1.6C22.141 0.666666 23.2077 0.199999 24.541 0.199999H28.441C29.3744 0.199999 30.2077 0.466665 30.941 0.999995C31.741 1.53333 32.3077 2.23333 32.641 3.1Z" fill="#F51C7B"/>
</svg>
