<svg width="35" height="52" viewBox="0 0 35 52" fill="none" xmlns="http://www.w3.org/2000/svg">
<path d="M34.4434 27.5C34.4434 28.8333 34.01 29.9 33.1434 30.7L13.2434 50.6C12.1767 51.5333 11.0767 52 9.94336 52H6.04336C5.17669 52 4.34336 51.7333 3.54336 51.2C2.81003 50.6667 2.24336 50 1.84336 49.2C1.11003 47.4 1.44336 45.7333 2.84336 44.2L19.9434 27C20.6767 26.5333 20.6767 25.9333 19.9434 25.2L2.84336 8.1C1.37669 6.76666 1.04336 5.1 1.84336 3.1C2.17669 2.23333 2.74336 1.53333 3.54336 0.999995C4.34336 0.466665 5.17669 0.199999 6.04336 0.199999H9.94336C11.0767 0.199999 12.1767 0.666666 13.2434 1.6L33.1434 21.5C34.01 22.3667 34.4434 23.4333 34.4434 24.7V27.5Z" fill="#F51C7B"/>
</svg>
